<svg xmlns="http://www.w3.org/2000/svg" viewBox="0 0 248.01 48.81"><defs><style>.cls-1{fill:#fff;}.cls-2{fill:#be1e2d;}</style></defs><g id="Layer_2" data-name="Layer 2"><g id="Layer_1-2" data-name="Layer 1"><path class="cls-1" d="M99.49,48.8h7.61L95.54,28.91l1.19-.33a13.45,13.45,0,0,0,4.62-2.24A12.79,12.79,0,0,0,104.43,23a15,15,0,0,0,1.76-4.16,18.38,18.38,0,0,0,.57-4.53,17.08,17.08,0,0,0-.89-5.47,11.78,11.78,0,0,0-2.7-4.48,13.5,13.5,0,0,0-4.74-3.07,18.69,18.69,0,0,0-7-1.17H64.94V7h26.8c2.74,0,4.79.78,6.1,2.32a8,8,0,0,1,1.92,5.32,9.63,9.63,0,0,1-.46,2.92,7.72,7.72,0,0,1-1.42,2.58A6.93,6.93,0,0,1,95.36,22a9,9,0,0,1-3.62.68H72c-2.52,0-4.34.54-5.39,1.6S65,27.16,65,29.73V48.8h6.93V31.46a2.08,2.08,0,0,1,2.24-2.24H87.94Z"></path><path class="cls-1" d="M113.79,48.8h6.93V31.46A2.08,2.08,0,0,1,123,29.22h15.76a17.14,17.14,0,0,0,7.14-1.34,13.83,13.83,0,0,0,4.74-3.43,13,13,0,0,0,2.62-4.75,19,19,0,0,0,.82-5.43,17,17,0,0,0-.89-5.47,11.93,11.93,0,0,0-2.71-4.48,13.46,13.46,0,0,0-4.73-3.07,18.69,18.69,0,0,0-7-1.17h-25V7h25.37c2.69,0,4.71.78,6,2.32A8.11,8.11,0,0,1,147,14.72a9.29,9.29,0,0,1-.45,2.89,7.92,7.92,0,0,1-1.42,2.54A7.06,7.06,0,0,1,142.63,22a8.88,8.88,0,0,1-3.61.68H120.78c-2.52,0-4.34.54-5.39,1.6s-1.6,2.9-1.6,5.47Z"></path><path class="cls-1" d="M49.4,0,33.49,18.33s-2.32,2.72-2.23,5.59a10.6,10.6,0,0,0,2.06,5.45L49.59,48.81l9.2-.09L40.85,27.52a6.05,6.05,0,0,1-1.33-3.68,5.35,5.35,0,0,1,1.86-3.74L58.91.08Z"></path><path class="cls-2" d="M.12,48.72l9.2.09L25.6,29.36a10.67,10.67,0,0,0,2-5.44c.09-2.88-2.21-5.56-2.23-5.59L9.51,0,0,.08,17.58,20.15a5.28,5.28,0,0,1,1.81,3.69,6.13,6.13,0,0,1-1.33,3.69Z"></path><path class="cls-2" d="M172.57,20.61v6h7.09v1.55h-7.09v7.13h-1.73V19.07h10v1.54Z"></path><path class="cls-2" d="M193.32,35.25l-3.68-7.18h-3.89v7.18H184V19.07h6.21c2.82,0,4.8,1.7,4.8,4.5a4.2,4.2,0,0,1-3.53,4.34l3.85,7.34Zm-3.25-14.64h-4.32v5.94h4.32c1.89,0,3.23-1,3.23-3S192,20.61,190.07,20.61Z"></path><path class="cls-2" d="M208.13,33.71a5.94,5.94,0,0,1-8.28,0c-1.52-1.53-1.52-3.12-1.52-6.55s0-5,1.52-6.55a5.94,5.94,0,0,1,8.28,0c1.52,1.53,1.52,3.12,1.52,6.55S209.65,32.18,208.13,33.71Zm-1.35-12.07A3.88,3.88,0,0,0,204,20.48a3.92,3.92,0,0,0-2.8,1.16c-1,1-1.14,2.13-1.14,5.52s.12,4.48,1.14,5.52a3.92,3.92,0,0,0,2.8,1.16,3.88,3.88,0,0,0,2.79-1.16c1-1,1.14-2.13,1.14-5.52S207.81,22.68,206.78,21.64Z"></path><path class="cls-2" d="M218,20.61V35.25h-1.73V20.61h-4.68V19.07H222.7v1.54Z"></path><path class="cls-2" d="M233.8,35.25l-1.3-3.66h-7.07l-1.3,3.66h-1.84l6-16.18h1.45l5.94,16.18ZM229,21.54,226,30.09H232Z"></path><path class="cls-2" d="M242.42,35.39a7,7,0,0,1-5.55-2.14l1.18-1.18a5.56,5.56,0,0,0,4.41,1.77c2.37,0,3.82-1.11,3.82-3a2.6,2.6,0,0,0-.77-2,3.55,3.55,0,0,0-2.12-.77l-1.89-.3a5.76,5.76,0,0,1-3-1.23,3.8,3.8,0,0,1-1.23-3c0-2.75,2-4.57,5.18-4.57a6.49,6.49,0,0,1,4.82,1.77l-1.11,1.12a5.1,5.1,0,0,0-3.77-1.39c-2.17,0-3.42,1.21-3.42,3a2.36,2.36,0,0,0,.73,1.87,4.6,4.6,0,0,0,2.19.88l1.77.28a5.15,5.15,0,0,1,2.95,1.13A4.06,4.06,0,0,1,248,30.8C248,33.64,245.78,35.39,242.42,35.39Z"></path></g></g></svg>